<svg width="144" height="44" viewBox="0 0 144 44" fill="none" xmlns="http://www.w3.org/2000/svg">
<path d="M31.402 12.3781V16.6723L27.7788 14.5252L22.3268 11.2942L16.8749 14.5252V20.9872L18.5 21.9506L21.2354 23.5713L22.1216 24.0978V28.392L18.5 26.2449L13.2534 23.1343V12.3781L22.3268 7L31.402 12.3781Z" fill="#2960EC"/>
<path d="M26.2461 20.6019V31.1156L25.9946 31.2635L22.3731 33.4106L17.1709 36.4937L8.0957 31.1156V20.3576L12.8086 17.5654V21.8596L11.7189 22.5048V28.9685L17.1709 32.1995L18.7499 31.2635L22.3731 29.1164L22.6229 28.9685V22.7473L26.2461 20.6019Z" fill="#2960EC"/>
<path d="M36.6486 20.358V31.1159L27.5734 36.494L22.7698 33.6467L26.393 31.4996L27.5734 32.1998L33.0254 28.9688V22.5051L31.4019 21.5434L28.0285 19.5442L27.7787 19.3963L27.5734 19.2759L25.9945 20.2101L22.3729 22.3572L22.1215 22.5051V23.5735L21.6767 23.3086L18.4999 21.4264V20.358L18.7497 20.2101L22.3729 18.0647L27.5734 14.9816L27.7787 15.1021L31.4019 17.2492L36.6486 20.358Z" fill="#2960EC"/>
<path d="M68.619 28.4812H65.2701L63.9295 20.5867L61.7856 26.2715L60.9532 28.4812H59.6659L58.8335 26.2715L56.6895 20.5867L55.349 28.4812H52L54.2698 15.1452H57.5849L57.609 15.1939L60.3095 22.3583V22.3632V22.3583L63.01 15.1939L63.0294 15.1452H66.3493L68.619 28.4812Z" fill="#141519"/>
<path d="M69.8582 19.0286C69.9018 16.6924 72.1522 14.7942 74.9785 14.7942C76.4013 14.7942 77.6886 15.2712 78.613 16.0499L77.2531 18.5565C76.6723 18.1282 75.4189 17.3835 74.1315 17.8848C74.1315 17.8848 73.3814 18.2401 73.5169 19.0189C73.6524 19.8025 75.264 20.2065 75.748 20.3136C75.748 20.3136 79.7841 21.1069 79.0921 24.8157C78.3952 28.5244 74.238 30.408 69.4275 27.3174L70.8697 24.548C70.8697 24.548 72.6071 25.9887 73.7976 25.8913C74.9881 25.7988 75.6028 25.5019 75.6028 24.5869C75.6028 24.5869 75.685 23.8082 74.509 23.375C73.333 22.9564 69.7953 22.6839 69.8582 19.0286Z" fill="#141519"/>
<path d="M87.4497 14.6185C83.37 14.6185 80.0597 17.8113 80.0597 21.744C80.0597 25.6864 83.3651 28.8744 87.4497 28.8744C91.5343 28.8744 94.8397 25.6864 94.8397 21.744C94.8445 17.8113 91.5343 14.6185 87.4497 14.6185ZM87.4497 25.5014C85.3058 25.5014 83.5635 23.8223 83.5635 21.7489C83.5635 19.6803 85.3058 18.0012 87.4497 18.0012C89.5985 18.0012 91.3359 19.6803 91.3359 21.7489C91.3359 23.8223 89.5985 25.5014 87.4497 25.5014Z" fill="#141519"/>
<path d="M95.5026 28.9193L92.1536 29.3817L86.4962 23.3805L89.8451 22.9132L95.5026 28.9193Z" fill="#141519"/>
<path d="M139.911 15.1452H136.542V28.8755H139.911V15.1452Z" fill="#141519"/>
<path d="M107.766 15.1452V24.2857C107.766 24.7968 107.684 25.2884 107.529 25.741C107.05 27.1866 105.869 28.3157 104.403 28.7197C104.02 28.8219 103.619 28.8803 103.202 28.8803H100.899C100.483 28.8803 100.076 28.8219 99.6986 28.7197C98.2225 28.3157 97.0513 27.1866 96.5722 25.741C96.4174 25.2884 96.3351 24.7968 96.3351 24.2857V15.1452H99.7034V23.3707C99.7034 24.68 100.758 25.741 102.055 25.741C103.357 25.741 104.412 24.68 104.412 23.3707V15.1452H107.766Z" fill="#141519"/>
<path d="M135.715 28.8794H131.596L127.531 22.2552H130.928L135.715 28.8794Z" fill="#141519"/>
<path d="M130.435 15.1452H124.593V28.8803H127.962V22.9181H130.435C132.569 22.9181 134.297 21.1805 134.297 19.0341C134.297 16.8876 132.569 15.1452 130.435 15.1452ZM129.046 21.1707H127.957V17.8221H129.046C129.98 17.8221 130.74 18.5717 130.74 19.4964C130.74 20.4212 129.985 21.1707 129.046 21.1707Z" fill="#141519"/>
<path d="M144 15.1452H136.542V18.0022H144V15.1452Z" fill="#141519"/>
<path d="M144 20.5862H136.542V23.4432H144V20.5862Z" fill="#141519"/>
<path d="M144 26.0227H136.542V28.8797H144V26.0227Z" fill="#141519"/>
<path d="M109.426 28.8788L114.169 14.6229H118.225L122.929 28.8788H119.052L118.142 25.7882H113.704L112.858 28.8788H109.426ZM115.868 18.6578L114.435 23.2767H117.383L115.95 18.6578H115.868Z" fill="#141519"/>
</svg>
